# File created by Blade
# Date/Time:  Fri Jan 16 19:32:17 2015
# Frame Rate: 120.000 fps
#------------------------------------------------------
:FULLY-SPECIFIED
:DEGREES
851
root 19.891554 35.500127 -20.829288 9.542400 10.517981 -0.032632
Spine -20.185246 -11.020117 0.005445
Head 19.043016 -3.031176 7.239000
LeftShoulder -6.355960 7.865198 1.108965
LeftArm -98.812794 48.570257 -165.225709
LeftForeArm 60.078309 -0.000000 111.634009
LeftHand 13.933869 -0.000000 -18.287446
LeftHandThumb1 -26.253704 0.000000 33.147579
RightShoulder -11.230458 1.593521 -21.141658
RightArm -357.659151 49.320805 -358.856954
RightForeArm -31.751170 -0.000000 2.734820
RightHand -3.127742 -0.000000 0.084214
RightHandThumb1 -24.326973 -0.000000 -32.862282
LeftUpLeg -1.862695 0.434176 0.769557
LeftLeg -6.378260 -0.000000 0.000000
LeftFoot -19.375422 27.497464 -11.970631
LeftToeBase 25.981406 -0.000000 -0.000000
RightUpLeg 0.500374 -16.419454 -1.490889
RightLeg -4.281065 -0.000000 0.000000
RightFoot -22.221900 -24.730416 19.642891
RightToeBase 24.464298 -0.000000 -0.000000
852
root 19.886565 35.499446 -20.835748 9.550253 10.516367 -0.039919
Spine -20.159792 -10.911870 -0.046626
Head 19.077058 -3.180428 7.219868
LeftShoulder -6.212600 7.870871 1.160176
LeftArm -98.670430 48.599831 -164.990629
LeftForeArm 59.922482 -0.000000 111.164408
LeftHand 14.179093 0.000000 -18.486743
LeftHandThumb1 -26.253704 0.000000 33.147579
RightShoulder -11.289723 1.496371 -21.180235
RightArm -357.683571 49.299093 -358.858243
RightForeArm -31.768365 0.000000 2.747744
RightHand -3.056793 -0.000000 -0.003924
RightHandThumb1 -24.326973 -0.000000 -32.862282
LeftUpLeg -1.890238 0.433965 0.782724
LeftLeg -6.366455 -0.000000 0.000000
LeftFoot -19.385148 27.508316 -11.936252
LeftToeBase 26.064507 -0.000000 -0.000000
RightUpLeg 0.464651 -16.393400 -1.472465
RightLeg -4.252188 -0.000000 0.000000
RightFoot -22.229014 -24.755133 19.596700
RightToeBase 24.518632 -0.000000 -0.000000
853
root 19.888105 35.499839 -20.835386 9.448665 10.539856 -0.058679
Spine -19.989470 -10.963648 -0.036500
Head 19.046711 -3.167768 7.229116
LeftShoulder -6.268329 7.792031 1.130802
LeftArm -98.542135 48.618391 -164.725541
LeftForeArm 60.202717 -0.000000 110.634242
LeftHand 13.482569 -0.000000 -18.475313
LeftHandThumb1 -26.253704 0.000000 33.147579
RightShoulder -11.253228 1.528221 -21.183751
RightArm -357.668040 49.281585 -358.879487
RightForeArm -31.783198 -0.000000 2.780715
RightHand -3.100573 -0.000000 -0.003360
RightHandThumb1 -24.326973 -0.000000 -32.862282
LeftUpLeg -1.791447 0.431447 0.800120
LeftLeg -6.372603 -0.000000 0.000000
LeftFoot -19.371732 27.503812 -11.913830
LeftToeBase 26.023334 -0.000000 -0.000000
RightUpLeg 0.575219 -16.428922 -1.483982
RightLeg -4.261541 -0.000000 0.000000
RightFoot -22.210621 -24.719888 19.633833
RightToeBase 24.466046 -0.000000 -0.000000
854
root 19.883976 35.508344 -20.849354 9.263484 10.568485 -0.112427
Spine -19.550271 -11.115366 -0.011870
Head 18.723086 -3.058681 7.348337
LeftShoulder -6.495605 7.565250 0.988065
LeftArm -98.393293 48.721392 -164.198928
LeftForeArm 59.546752 -0.000000 110.005661
LeftHand 13.571889 -0.000000 -20.247848
LeftHandThumb1 -26.253704 0.000000 33.147579
RightShoulder -11.265841 1.814764 -21.054806
RightArm -357.588611 49.240122 -358.953003
RightForeArm -31.816335 0.000000 2.834903
RightHand -3.094599 -0.000000 0.052509
RightHandThumb1 -24.326973 -0.000000 -32.862282
LeftUpLeg -1.674741 0.420788 0.858593
LeftLeg -6.314218 -0.000000 0.000000
LeftFoot -19.357041 27.492081 -11.949823
LeftToeBase 26.025753 -0.000000 -0.000000
RightUpLeg 0.706643 -16.403217 -1.469199
RightLeg -4.206366 -0.000000 0.000000
RightFoot -22.202925 -24.727726 19.796473
RightToeBase 24.416636 -0.000000 -0.000000
855
root 19.879508 35.506786 -20.852068 9.336244 10.548060 -0.080155
Spine -19.665219 -10.938762 -0.121519
Head 18.893905 -3.241738 7.339276
LeftShoulder -6.261501 7.718679 1.060548
LeftArm -98.173781 48.854429 -163.855890
LeftForeArm 58.728698 -0.000000 109.425918
LeftHand 13.501274 -0.000000 -20.272368
LeftHandThumb1 -26.253704 0.000000 33.147579
RightShoulder -11.289661 1.573494 -21.109384
RightArm -357.716589 49.281783 -359.005963
RightForeArm -31.792959 -0.000000 2.849718
RightHand -3.067063 -0.000000 0.042365
RightHandThumb1 -24.326973 -0.000000 -32.862282
LeftUpLeg -1.740790 0.451802 0.828433
LeftLeg -6.321975 -0.000000 0.000000
LeftFoot -19.348147 27.471729 -11.958176
LeftToeBase 26.002476 -0.000000 -0.000000
RightUpLeg 0.627222 -16.377235 -1.475376
RightLeg -4.202790 -0.000000 0.000000
RightFoot -22.212775 -24.763615 19.694621
RightToeBase 24.456008 -0.000000 -0.000000
856
root 19.878230 35.505290 -20.853783 9.345250 10.575344 -0.088292
Spine -19.666209 -10.982334 -0.104517
Head 18.940645 -3.200164 7.336363
LeftShoulder -6.323953 7.730970 1.059418
LeftArm -98.191560 48.946340 -163.743568
LeftForeArm 58.846829 0.000000 108.823317
LeftHand 13.544605 -0.000000 -20.245303
LeftHandThumb1 -26.253704 0.000000 33.147579
RightShoulder -11.232561 1.471683 -21.141794
RightArm -357.690416 49.360354 -358.993301
RightForeArm -31.760705 -0.000000 2.827623
RightHand -3.070411 -0.000000 -0.042471
RightHandThumb1 -24.326973 -0.000000 -32.862282
LeftUpLeg -1.755628 0.442409 0.840333
LeftLeg -6.327205 -0.000000 0.000000
LeftFoot -19.355495 27.469904 -11.924869
LeftToeBase 26.030079 -0.000000 -0.000000
RightUpLeg 0.620808 -16.410046 -1.459859
RightLeg -4.210484 -0.000000 0.000000
RightFoot -22.210397 -24.759114 19.681872
RightToeBase 24.461861 -0.000000 -0.000000
857
root 19.876152 35.505374 -20.857102 9.405880 10.609305 -0.073827
Spine -19.739704 -11.062923 -0.098763
Head 19.032695 -3.158883 7.316782
LeftShoulder -6.393110 7.643618 1.057965
LeftArm -98.243617 48.921265 -163.638102
LeftForeArm 58.647925 0.000000 108.222600
LeftHand 13.756384 -0.000000 -20.520624
LeftHandThumb1 -26.253704 0.000000 33.147579
RightShoulder -11.118050 1.464252 -21.173684
RightArm -357.785691 49.406471 -359.091833
RightForeArm -31.938285 -0.000000 2.803969
RightHand -2.866324 -0.000000 0.009067
RightHandThumb1 -24.326973 -0.000000 -32.862282
LeftUpLeg -1.827457 0.420842 0.831426
LeftLeg -6.322533 -0.000000 0.000000
LeftFoot -19.336360 27.468990 -11.928294
LeftToeBase 25.999609 -0.000000 -0.000000
RightUpLeg 0.564318 -16.438907 -1.449744
RightLeg -4.218492 -0.000000 0.000000
RightFoot -22.217704 -24.759202 19.675084
RightToeBase 24.485545 -0.000000 -0.000000
858
root 19.873522 35.506275 -20.861220 9.417135 10.599075 -0.069234
Spine -19.693741 -11.020878 -0.149122
Head 19.002719 -3.182871 7.373017
LeftShoulder -6.427018 7.514161 1.076941
LeftArm -98.403762 48.983395 -163.601326
LeftForeArm 58.475495 -0.000000 107.659681
LeftHand 13.526285 -0.000000 -20.241216
LeftHandThumb1 -26.253704 0.000000 33.147579
RightShoulder -11.172706 1.515919 -21.171023
RightArm -357.655282 49.303759 -359.039853
RightForeArm -31.806601 0.000000 2.802470
RightHand -3.077686 -0.000000 -0.075117
RightHandThumb1 -24.326973 -0.000000 -32.862282
LeftUpLeg -1.842114 0.463963 0.825479
LeftLeg -6.328253 -0.000000 0.000000
LeftFoot -19.318199 27.432102 -11.937968
LeftToeBase 25.981650 -0.000000 -0.000000
RightUpLeg 0.543201 -16.426481 -1.447245
RightLeg -4.215418 -0.000000 0.000000
RightFoot -22.210197 -24.756762 19.660137
RightToeBase 24.486510 -0.000000 -0.000000
